<svg xmlns="http://www.w3.org/2000/svg" xmlns:xlink="http://www.w3.org/1999/xlink" viewBox="0 0 631 350" width="631" height="350"><path d="M 80.500,214.000 C 85.516,212.039 85.500,212.000 90.500,210.000" stroke-width="4.978" stroke="#00233E" fill="none" stroke-linecap="round"></path><path d="M 90.500,210.000 C 96.465,207.414 96.516,207.539 102.500,205.000" stroke-width="3.499" stroke="#00233E" fill="none" stroke-linecap="round"></path><path d="M 102.500,205.000 C 109.005,202.514 108.965,202.414 115.500,200.000" stroke-width="3.139" stroke="#00233E" fill="none" stroke-linecap="round"></path><path d="M 115.500,200.000 C 124.476,196.438 124.505,196.514 133.500,193.000" stroke-width="2.767" stroke="#00233E" fill="none" stroke-linecap="round"></path><path d="M 133.500,193.000 C 145.762,189.076 145.476,188.438 157.500,184.000" stroke-width="2.378" stroke="#00233E" fill="none" stroke-linecap="round"></path><path d="M 157.500,184.000 C 164.156,180.767 164.262,181.076 170.500,177.000" stroke-width="2.788" stroke="#00233E" fill="none" stroke-linecap="round"></path><path d="M 170.500,177.000 C 180.157,171.228 180.156,171.267 189.500,165.000" stroke-width="2.522" stroke="#00233E" fill="none" stroke-linecap="round"></path><path d="M 189.500,165.000 C 194.123,162.603 193.657,162.228 197.500,159.000" stroke-width="3.158" stroke="#00233E" fill="none" stroke-linecap="round"></path><path d="M 197.500,159.000 C 201.378,154.204 201.623,154.603 204.500,149.000" stroke-width="3.181" stroke="#00233E" fill="none" stroke-linecap="round"></path><path d="M 204.500,149.000 C 206.027,146.601 205.878,146.704 206.500,144.000" stroke-width="3.873" stroke="#00233E" fill="none" stroke-linecap="round"></path><path d="M 206.500,144.000 C 206.699,140.989 207.027,141.101 206.500,138.000" stroke-width="4.023" stroke="#00233E" fill="none" stroke-linecap="round"></path><path d="M 206.500,138.000 C 206.892,133.175 206.199,133.489 205.500,129.000" stroke-width="3.711" stroke="#00233E" fill="none" stroke-linecap="round"></path><path d="M 205.500,129.000 C 203.435,126.041 204.392,125.675 201.500,123.000" stroke-width="3.826" stroke="#00233E" fill="none" stroke-linecap="round"></path><path d="M 201.500,123.000 C 200.333,120.240 199.935,120.541 198.500,118.000" stroke-width="4.029" stroke="#00233E" fill="none" stroke-linecap="round"></path><path d="M 198.500,118.000 C 195.865,114.447 195.833,114.740 192.500,112.000" stroke-width="3.775" stroke="#00233E" fill="none" stroke-linecap="round"></path><path d="M 192.500,112.000 C 190.109,110.435 190.365,110.447 187.500,110.000" stroke-width="4.472" stroke="#00233E" fill="none" stroke-linecap="round"></path><path d="M 187.500,110.000 C 183.279,108.412 184.109,109.435 180.500,110.000" stroke-width="4.571" stroke="#00233E" fill="none" stroke-linecap="round"></path><path d="M 180.500,110.000 C 176.600,113.708 176.279,112.412 173.500,118.000" stroke-width="4.367" stroke="#00233E" fill="none" stroke-linecap="round"></path><path d="M 173.500,118.000 C 170.374,122.928 170.100,122.708 167.500,128.000" stroke-width="3.653" stroke="#00233E" fill="none" stroke-linecap="round"></path><path d="M 167.500,128.000 C 161.599,137.801 161.874,137.928 156.500,148.000" stroke-width="2.676" stroke="#00233E" fill="none" stroke-linecap="round"></path><path d="M 156.500,148.000 C 152.901,157.197 152.099,156.801 148.500,166.000" stroke-width="2.626" stroke="#00233E" fill="none" stroke-linecap="round"></path><path d="M 148.500,166.000 C 142.370,178.223 142.401,178.197 135.500,190.000" stroke-width="2.281" stroke="#00233E" fill="none" stroke-linecap="round"></path><path d="M 135.500,190.000 C 130.919,195.689 131.870,196.223 127.500,202.000" stroke-width="2.766" stroke="#00233E" fill="none" stroke-linecap="round"></path><path d="M 127.500,202.000 C 125.502,208.269 124.419,207.689 122.500,214.000" stroke-width="2.994" stroke="#00233E" fill="none" stroke-linecap="round"></path><path d="M 122.500,214.000 C 119.117,218.289 120.002,218.769 116.500,223.000" stroke-width="3.291" stroke="#00233E" fill="none" stroke-linecap="round"></path><path d="M 116.500,223.000 C 114.283,227.416 114.117,227.289 112.500,232.000" stroke-width="3.422" stroke="#00233E" fill="none" stroke-linecap="round"></path><path d="M 112.500,232.000 C 111.000,236.500 110.783,236.416 109.500,241.000" stroke-width="4.051" stroke="#00233E" fill="none" stroke-linecap="round"></path><path d="M 109.500,241.000 C 108.000,245.500 108.000,245.500 106.500,250.000" stroke-width="3.673" stroke="#00233E" fill="none" stroke-linecap="round"></path><path d="M 106.500,250.000 C 105.782,253.117 105.500,253.000 104.500,256.000" stroke-width="3.962" stroke="#00233E" fill="none" stroke-linecap="round"></path><path d="M 104.500,256.000 C 99.993,261.731 101.782,262.117 98.500,268.000" stroke-width="4.034" stroke="#00233E" fill="none" stroke-linecap="round"></path><path d="M 98.500,268.000 C 99.235,272.487 97.493,272.231 99.500,277.000" stroke-width="4.872" stroke="#00233E" fill="none" stroke-linecap="round"></path><path d="M 99.500,277.000 C 100.368,281.240 99.735,280.987 99.500,285.000" stroke-width="4.089" stroke="#00233E" fill="none" stroke-linecap="round"></path><path d="M 99.500,285.000 C 98.028,287.517 98.868,287.740 96.500,290.000" stroke-width="4.158" stroke="#00233E" fill="none" stroke-linecap="round"></path><path d="M 96.500,290.000 C 94.115,294.077 94.028,294.017 91.500,298.000" stroke-width="3.704" stroke="#00233E" fill="none" stroke-linecap="round"></path><path d="M 91.500,298.000 C 88.884,304.404 89.115,301.577 86.500,305.000" stroke-width="4.221" stroke="#00233E" fill="none" stroke-linecap="round"></path><path d="M 86.500,305.000 C 84.132,302.740 84.884,305.404 83.500,300.000" stroke-width="5.012" stroke="#00233E" fill="none" stroke-linecap="round"></path><path d="M 83.500,300.000 C 82.976,295.927 82.632,296.240 83.500,292.000" stroke-width="4.118" stroke="#00233E" fill="none" stroke-linecap="round"></path><path d="M 83.500,292.000 C 84.225,288.400 83.976,288.427 85.500,285.000" stroke-width="3.990" stroke="#00233E" fill="none" stroke-linecap="round"></path><path d="M 85.500,285.000 C 87.526,280.511 87.225,280.400 89.500,276.000" stroke-width="3.620" stroke="#00233E" fill="none" stroke-linecap="round"></path><path d="M 89.500,276.000 C 90.799,272.402 91.026,272.511 92.500,269.000" stroke-width="3.801" stroke="#00233E" fill="none" stroke-linecap="round"></path><path d="M 92.500,269.000 C 95.202,264.596 94.799,264.402 97.500,260.000" stroke-width="3.528" stroke="#00233E" fill="none" stroke-linecap="round"></path><path d="M 97.500,260.000 C 98.580,257.529 98.702,257.596 99.500,255.000" stroke-width="3.978" stroke="#00233E" fill="none" stroke-linecap="round"></path><path d="M 99.500,255.000 C 100.098,251.804 100.580,252.029 101.500,249.000" stroke-width="4.470" stroke="#00233E" fill="none" stroke-linecap="round"></path><path d="M 101.500,249.000 C 103.405,245.933 103.098,245.804 105.500,243.000" stroke-width="4.571" stroke="#00233E" fill="none" stroke-linecap="round"></path><path d="M 105.500,243.000 C 108.670,239.117 108.405,238.933 111.500,235.000" stroke-width="4.390" stroke="#00233E" fill="none" stroke-linecap="round"></path><path d="M 111.500,235.000 C 113.830,230.883 114.170,231.117 116.500,227.000" stroke-width="4.399" stroke="#00233E" fill="none" stroke-linecap="round"></path><path d="M 116.500,227.000 C 119.452,222.963 119.330,222.883 122.500,219.000" stroke-width="4.382" stroke="#00233E" fill="none" stroke-linecap="round"></path><path d="M 122.500,219.000 C 124.500,216.500 124.452,216.463 126.500,214.000" stroke-width="4.591" stroke="#00233E" fill="none" stroke-linecap="round"></path><path d="M 126.500,214.000 C 128.148,211.116 128.500,211.500 130.500,209.000" stroke-width="4.690" stroke="#00233E" fill="none" stroke-linecap="round"></path><path d="M 130.500,209.000 C 133.459,206.935 133.148,206.616 136.500,205.000" stroke-width="4.638" stroke="#00233E" fill="none" stroke-linecap="round"></path><path d="M 136.500,205.000 C 139.355,201.523 138.959,203.435 141.500,202.000" stroke-width="5.121" stroke="#00233E" fill="none" stroke-linecap="round"></path><path d="M 141.500,202.000 C 144.001,204.215 143.855,202.523 145.500,207.000" stroke-width="5.076" stroke="#00233E" fill="none" stroke-linecap="round"></path><path d="M 145.500,207.000 C 147.298,210.912 147.501,210.715 148.500,215.000" stroke-width="4.655" stroke="#00233E" fill="none" stroke-linecap="round"></path><path d="M 148.500,215.000 C 149.894,219.457 149.798,219.412 150.500,224.000" stroke-width="4.471" stroke="#00233E" fill="none" stroke-linecap="round"></path><path d="M 150.500,224.000 C 150.287,227.013 150.894,226.957 150.500,230.000" stroke-width="4.669" stroke="#00233E" fill="none" stroke-linecap="round"></path><path d="M 150.500,230.000 C 151.213,233.987 150.787,234.013 151.500,238.000" stroke-width="4.583" stroke="#00233E" fill="none" stroke-linecap="round"></path><path d="M 151.500,238.000 C 151.500,241.000 151.713,240.987 151.500,244.000" stroke-width="4.705" stroke="#00233E" fill="none" stroke-linecap="round"></path><path d="M 151.500,244.000 C 151.500,247.500 151.500,247.500 151.500,251.000" stroke-width="4.176" stroke="#00233E" fill="none" stroke-linecap="round"></path><path d="M 151.500,251.000 C 151.500,257.500 151.500,257.500 151.500,264.000" stroke-width="4.124" stroke="#00233E" fill="none" stroke-linecap="round"></path><path d="M 151.500,264.000 C 151.041,267.557 151.500,267.500 151.500,271.000" stroke-width="4.456" stroke="#00233E" fill="none" stroke-linecap="round"></path><path d="M 151.500,271.000 C 152.742,274.955 152.041,275.057 153.500,279.000" stroke-width="4.505" stroke="#00233E" fill="none" stroke-linecap="round"></path><path d="M 153.500,279.000 C 153.581,283.095 154.242,282.955 154.500,287.000" stroke-width="3.999" stroke="#00233E" fill="none" stroke-linecap="round"></path><path d="M 154.500,287.000 C 154.898,292.748 155.581,291.595 157.500,296.000" stroke-width="4.251" stroke="#00233E" fill="none" stroke-linecap="round"></path><path d="M 157.500,296.000 C 160.481,298.087 158.898,297.748 162.500,297.000" stroke-width="4.937" stroke="#00233E" fill="none" stroke-linecap="round"></path><path d="M 162.500,297.000 C 167.047,293.394 166.981,294.587 170.500,289.000" stroke-width="4.388" stroke="#00233E" fill="none" stroke-linecap="round"></path><path d="M 170.500,289.000 C 171.693,285.810 172.547,286.394 173.500,283.000" stroke-width="4.134" stroke="#00233E" fill="none" stroke-linecap="round"></path><path d="M 173.500,283.000 C 176.463,278.972 176.193,278.810 179.500,275.000" stroke-width="3.701" stroke="#00233E" fill="none" stroke-linecap="round"></path><path d="M 179.500,275.000 C 182.720,270.253 182.963,270.472 186.500,266.000" stroke-width="3.461" stroke="#00233E" fill="none" stroke-linecap="round"></path><path d="M 186.500,266.000 C 190.861,261.349 190.720,261.253 195.500,257.000" stroke-width="3.837" stroke="#00233E" fill="none" stroke-linecap="round"></path><path d="M 195.500,257.000 C 198.766,253.667 198.861,253.849 202.500,251.000" stroke-width="4.230" stroke="#00233E" fill="none" stroke-linecap="round"></path><path d="M 202.500,251.000 C 205.952,248.910 205.766,248.667 209.500,247.000" stroke-width="4.447" stroke="#00233E" fill="none" stroke-linecap="round"></path><path d="M 209.500,247.000 C 212.375,245.136 212.452,245.410 215.500,244.000" stroke-width="4.604" stroke="#00233E" fill="none" stroke-linecap="round"></path><path d="M 215.500,244.000 C 217.978,243.360 217.875,243.136 220.500,243.000" stroke-width="4.789" stroke="#00233E" fill="none" stroke-linecap="round"></path><path d="M 220.500,243.000 C 225.084,241.706 224.978,242.360 229.500,242.000" stroke-width="4.770" stroke="#00233E" fill="none" stroke-linecap="round"></path><path d="M 229.500,242.000 C 235.500,244.243 232.584,242.206 235.500,244.000" stroke-width="5.112" stroke="#00233E" fill="none" stroke-linecap="round"></path><path d="M 235.500,244.000 C 232.041,243.079 235.500,243.743 229.500,241.000" stroke-width="5.235" stroke="#00233E" fill="none" stroke-linecap="round"></path><path d="M 229.500,241.000 C 227.610,236.697 226.541,238.579 224.500,235.000" stroke-width="4.735" stroke="#00233E" fill="none" stroke-linecap="round"></path><path d="M 224.500,235.000 C 221.074,233.971 222.110,233.697 218.500,235.000" stroke-width="5.106" stroke="#00233E" fill="none" stroke-linecap="round"></path><path d="M 218.500,235.000 C 216.096,236.695 216.074,235.971 214.500,239.000" stroke-width="5.154" stroke="#00233E" fill="none" stroke-linecap="round"></path><path d="M 214.500,239.000 C 211.922,243.459 211.596,243.195 209.500,248.000" stroke-width="3.876" stroke="#00233E" fill="none" stroke-linecap="round"></path><path d="M 209.500,248.000 C 207.819,250.921 207.922,250.959 206.500,254.000" stroke-width="3.985" stroke="#00233E" fill="none" stroke-linecap="round"></path><path d="M 206.500,254.000 C 205.181,258.079 204.819,257.921 203.500,262.000" stroke-width="3.757" stroke="#00233E" fill="none" stroke-linecap="round"></path><path d="M 203.500,262.000 C 201.787,264.912 202.181,265.079 200.500,268.000" stroke-width="4.355" stroke="#00233E" fill="none" stroke-linecap="round"></path><path d="M 200.500,268.000 C 199.013,270.921 199.287,270.912 198.500,274.000" stroke-width="4.123" stroke="#00233E" fill="none" stroke-linecap="round"></path><path d="M 198.500,274.000 C 198.699,277.011 198.013,276.921 198.500,280.000" stroke-width="4.563" stroke="#00233E" fill="none" stroke-linecap="round"></path><path d="M 198.500,280.000 C 197.801,284.489 198.199,284.511 197.500,289.000" stroke-width="4.458" stroke="#00233E" fill="none" stroke-linecap="round"></path><path d="M 197.500,289.000 C 196.149,293.108 197.301,291.989 197.500,295.000" stroke-width="4.679" stroke="#00233E" fill="none" stroke-linecap="round"></path><path d="M 197.500,295.000 C 200.363,296.890 198.649,296.608 202.500,296.000" stroke-width="4.956" stroke="#00233E" fill="none" stroke-linecap="round"></path><path d="M 202.500,296.000 C 206.248,293.252 206.363,294.390 209.500,290.000" stroke-width="5.071" stroke="#00233E" fill="none" stroke-linecap="round"></path><path d="M 209.500,290.000 C 213.623,285.604 213.748,285.752 217.500,281.000" stroke-width="3.747" stroke="#00233E" fill="none" stroke-linecap="round"></path><path d="M 217.500,281.000 C 221.500,276.000 221.623,276.104 225.500,271.000" stroke-width="3.288" stroke="#00233E" fill="none" stroke-linecap="round"></path><path d="M 225.500,271.000 C 227.548,268.537 227.500,268.500 229.500,266.000" stroke-width="3.767" stroke="#00233E" fill="none" stroke-linecap="round"></path><path d="M 229.500,266.000 C 232.900,262.225 232.548,262.037 235.500,258.000" stroke-width="4.116" stroke="#00233E" fill="none" stroke-linecap="round"></path><path d="M 235.500,258.000 C 236.796,252.765 236.900,255.725 237.500,253.000" stroke-width="4.581" stroke="#00233E" fill="none" stroke-linecap="round"></path><path d="M 237.500,253.000 C 238.500,255.986 238.296,253.265 238.500,259.000" stroke-width="5.204" stroke="#00233E" fill="none" stroke-linecap="round"></path><path d="M 238.500,259.000 C 237.715,263.484 238.500,263.486 237.500,268.000" stroke-width="4.646" stroke="#00233E" fill="none" stroke-linecap="round"></path><path d="M 237.500,268.000 C 237.500,274.000 237.215,273.984 237.500,280.000" stroke-width="4.269" stroke="#00233E" fill="none" stroke-linecap="round"></path><path d="M 237.500,280.000 C 235.983,285.359 237.500,284.500 237.500,289.000" stroke-width="4.615" stroke="#00233E" fill="none" stroke-linecap="round"></path><path d="M 237.500,289.000 C 239.789,291.261 238.483,291.359 242.500,292.000" stroke-width="4.903" stroke="#00233E" fill="none" stroke-linecap="round"></path><path d="M 242.500,292.000 C 245.727,292.853 245.289,292.761 248.500,292.000" stroke-width="5.149" stroke="#00233E" fill="none" stroke-linecap="round"></path><path d="M 248.500,292.000 C 252.502,290.623 252.227,290.853 255.500,288.000" stroke-width="4.712" stroke="#00233E" fill="none" stroke-linecap="round"></path><path d="M 255.500,288.000 C 259.755,282.745 260.502,283.623 264.500,278.000" stroke-width="3.489" stroke="#00233E" fill="none" stroke-linecap="round"></path><path d="M 264.500,278.000 C 267.858,275.846 267.255,275.245 270.500,273.000" stroke-width="3.737" stroke="#00233E" fill="none" stroke-linecap="round"></path><path d="M 270.500,273.000 C 273.852,268.377 274.358,268.846 277.500,264.000" stroke-width="3.408" stroke="#00233E" fill="none" stroke-linecap="round"></path><path d="M 277.500,264.000 C 281.583,259.570 281.352,259.377 285.500,255.000" stroke-width="3.898" stroke="#00233E" fill="none" stroke-linecap="round"></path><path d="M 285.500,255.000 C 287.473,252.478 287.583,252.570 289.500,250.000" stroke-width="4.448" stroke="#00233E" fill="none" stroke-linecap="round"></path><path d="M 289.500,250.000 C 291.637,246.576 291.973,246.978 294.500,244.000" stroke-width="4.535" stroke="#00233E" fill="none" stroke-linecap="round"></path><path d="M 294.500,244.000 C 297.692,239.915 296.637,242.076 299.500,241.000" stroke-width="4.973" stroke="#00233E" fill="none" stroke-linecap="round"></path><path d="M 299.500,241.000 C 302.982,245.193 302.692,242.915 304.500,250.000" stroke-width="4.999" stroke="#00233E" fill="none" stroke-linecap="round"></path><path d="M 304.500,250.000 C 304.913,255.011 305.982,254.693 305.500,260.000" stroke-width="3.808" stroke="#00233E" fill="none" stroke-linecap="round"></path><path d="M 305.500,260.000 C 306.265,263.481 305.913,263.511 306.500,267.000" stroke-width="3.966" stroke="#00233E" fill="none" stroke-linecap="round"></path><path d="M 306.500,267.000 C 306.735,271.013 306.765,270.981 306.500,275.000" stroke-width="3.866" stroke="#00233E" fill="none" stroke-linecap="round"></path><path d="M 306.500,275.000 C 306.332,279.565 306.235,279.513 305.500,284.000" stroke-width="4.234" stroke="#00233E" fill="none" stroke-linecap="round"></path><path d="M 305.500,284.000 C 304.801,287.617 304.832,287.565 303.500,291.000" stroke-width="4.472" stroke="#00233E" fill="none" stroke-linecap="round"></path><path d="M 303.500,291.000 C 301.843,293.930 302.301,294.117 300.500,297.000" stroke-width="4.156" stroke="#00233E" fill="none" stroke-linecap="round"></path><path d="M 300.500,297.000 C 298.116,306.731 298.343,301.930 296.500,307.000" stroke-width="4.236" stroke="#00233E" fill="none" stroke-linecap="round"></path><path d="M 296.500,307.000 C 294.500,302.511 295.116,307.231 294.500,298.000" stroke-width="4.895" stroke="#00233E" fill="none" stroke-linecap="round"></path><path d="M 294.500,298.000 C 295.320,292.957 294.500,293.011 296.500,288.000" stroke-width="3.840" stroke="#00233E" fill="none" stroke-linecap="round"></path><path d="M 296.500,288.000 C 297.558,282.340 297.820,282.457 299.500,277.000" stroke-width="3.434" stroke="#00233E" fill="none" stroke-linecap="round"></path><path d="M 299.500,277.000 C 302.316,271.616 301.558,271.340 304.500,266.000" stroke-width="3.270" stroke="#00233E" fill="none" stroke-linecap="round"></path><path d="M 304.500,266.000 C 305.076,262.322 305.816,262.616 306.500,259.000" stroke-width="3.752" stroke="#00233E" fill="none" stroke-linecap="round"></path><path d="M 306.500,259.000 C 308.500,255.500 308.076,255.322 310.500,252.000" stroke-width="3.686" stroke="#00233E" fill="none" stroke-linecap="round"></path><path d="M 310.500,252.000 C 312.103,248.196 312.500,248.500 314.500,245.000" stroke-width="4.249" stroke="#00233E" fill="none" stroke-linecap="round"></path><path d="M 314.500,245.000 C 317.272,242.723 316.603,242.196 319.500,240.000" stroke-width="4.052" stroke="#00233E" fill="none" stroke-linecap="round"></path><path d="M 319.500,240.000 C 320.924,236.290 321.772,237.223 323.500,234.000" stroke-width="4.431" stroke="#00233E" fill="none" stroke-linecap="round"></path><path d="M 323.500,234.000 C 325.949,232.850 325.424,232.290 328.500,232.000" stroke-width="4.707" stroke="#00233E" fill="none" stroke-linecap="round"></path><path d="M 328.500,232.000 C 331.932,230.000 331.949,230.850 335.500,230.000" stroke-width="4.847" stroke="#00233E" fill="none" stroke-linecap="round"></path><path d="M 335.500,230.000 C 342.508,230.951 342.432,230.000 349.500,232.000" stroke-width="4.686" stroke="#00233E" fill="none" stroke-linecap="round"></path><path d="M 349.500,232.000 C 352.755,231.856 352.508,232.451 355.500,233.000" stroke-width="4.714" stroke="#00233E" fill="none" stroke-linecap="round"></path><path d="M 355.500,233.000 C 359.012,234.512 358.755,234.356 361.500,237.000" stroke-width="4.645" stroke="#00233E" fill="none" stroke-linecap="round"></path><path d="M 361.500,237.000 C 363.198,239.397 363.512,239.012 364.500,242.000" stroke-width="4.739" stroke="#00233E" fill="none" stroke-linecap="round"></path><path d="M 364.500,242.000 C 366.853,246.388 366.698,246.397 368.500,251.000" stroke-width="4.489" stroke="#00233E" fill="none" stroke-linecap="round"></path><path d="M 368.500,251.000 C 369.319,253.468 369.353,253.388 369.500,256.000" stroke-width="4.374" stroke="#00233E" fill="none" stroke-linecap="round"></path><path d="M 369.500,256.000 C 369.500,260.500 369.819,260.468 369.500,265.000" stroke-width="3.918" stroke="#00233E" fill="none" stroke-linecap="round"></path><path d="M 369.500,265.000 C 369.500,270.000 369.500,270.000 369.500,275.000" stroke-width="3.587" stroke="#00233E" fill="none" stroke-linecap="round"></path><path d="M 369.500,275.000 C 369.500,279.000 369.500,279.000 369.500,283.000" stroke-width="3.750" stroke="#00233E" fill="none" stroke-linecap="round"></path><path d="M 369.500,283.000 C 369.500,286.000 369.500,286.000 369.500,289.000" stroke-width="4.026" stroke="#00233E" fill="none" stroke-linecap="round"></path><path d="M 369.500,289.000 C 369.921,292.052 369.500,292.000 369.500,295.000" stroke-width="4.117" stroke="#00233E" fill="none" stroke-linecap="round"></path><path d="M 369.500,295.000 C 368.710,299.068 368.921,299.052 367.500,303.000" stroke-width="4.413" stroke="#00233E" fill="none" stroke-linecap="round"></path><path d="M 367.500,303.000 C 366.237,308.737 366.710,305.568 365.500,308.000" stroke-width="4.714" stroke="#00233E" fill="none" stroke-linecap="round"></path><path d="M 365.500,308.000 C 364.006,303.554 364.237,306.737 363.500,299.000" stroke-width="4.986" stroke="#00233E" fill="none" stroke-linecap="round"></path><path d="M 363.500,299.000 C 363.500,294.500 363.006,294.554 363.500,290.000" stroke-width="3.992" stroke="#00233E" fill="none" stroke-linecap="round"></path><path d="M 363.500,290.000 C 362.606,282.855 363.500,283.000 363.500,276.000" stroke-width="3.310" stroke="#00233E" fill="none" stroke-linecap="round"></path><path d="M 363.500,276.000 C 364.933,271.477 364.106,271.355 366.500,267.000" stroke-width="3.462" stroke="#00233E" fill="none" stroke-linecap="round"></path><path d="M 366.500,267.000 C 368.445,261.479 368.433,261.477 370.500,256.000" stroke-width="3.310" stroke="#00233E" fill="none" stroke-linecap="round"></path><path d="M 370.500,256.000 C 371.299,253.403 371.445,253.479 372.500,251.000" stroke-width="3.892" stroke="#00233E" fill="none" stroke-linecap="round"></path><path d="M 372.500,251.000 C 374.271,247.344 374.299,247.403 376.500,244.000" stroke-width="4.528" stroke="#00233E" fill="none" stroke-linecap="round"></path><path d="M 376.500,244.000 C 378.248,241.252 378.271,241.344 380.500,239.000" stroke-width="4.670" stroke="#00233E" fill="none" stroke-linecap="round"></path><path d="M 380.500,239.000 C 383.272,236.152 383.248,236.252 386.500,234.000" stroke-width="4.603" stroke="#00233E" fill="none" stroke-linecap="round"></path><path d="M 386.500,234.000 C 389.353,232.049 389.272,232.152 392.500,231.000" stroke-width="5.005" stroke="#00233E" fill="none" stroke-linecap="round"></path><path d="M 392.500,231.000 C 395.519,229.801 395.353,230.049 398.500,230.000" stroke-width="5.004" stroke="#00233E" fill="none" stroke-linecap="round"></path><path d="M 398.500,230.000 C 402.981,231.096 403.019,230.301 407.500,232.000" stroke-width="4.540" stroke="#00233E" fill="none" stroke-linecap="round"></path><path d="M 407.500,232.000 C 410.500,232.500 410.481,232.596 413.500,233.000" stroke-width="4.685" stroke="#00233E" fill="none" stroke-linecap="round"></path><path d="M 413.500,233.000 C 416.533,234.330 416.500,233.500 419.500,234.000" stroke-width="4.745" stroke="#00233E" fill="none" stroke-linecap="round"></path><path d="M 419.500,234.000 C 425.749,233.119 425.533,233.330 431.500,231.000" stroke-width="4.241" stroke="#00233E" fill="none" stroke-linecap="round"></path><path d="M 431.500,231.000 C 434.864,228.723 435.249,229.619 438.500,227.000" stroke-width="3.878" stroke="#00233E" fill="none" stroke-linecap="round"></path><path d="M 438.500,227.000 C 444.705,224.897 444.364,224.223 450.500,222.000" stroke-width="3.301" stroke="#00233E" fill="none" stroke-linecap="round"></path><path d="M 450.500,222.000 C 454.815,219.896 454.705,219.897 458.500,217.000" stroke-width="3.565" stroke="#00233E" fill="none" stroke-linecap="round"></path><path d="M 458.500,217.000 C 461.272,213.731 461.815,214.396 464.500,211.000" stroke-width="3.642" stroke="#00233E" fill="none" stroke-linecap="round"></path><path d="M 464.500,211.000 C 468.060,208.580 467.772,208.231 471.500,206.000" stroke-width="3.653" stroke="#00233E" fill="none" stroke-linecap="round"></path><path d="M 471.500,206.000 C 474.830,201.722 474.060,204.080 476.500,202.000" stroke-width="4.334" stroke="#00233E" fill="none" stroke-linecap="round"></path><path d="M 476.500,202.000 C 477.305,204.470 477.830,202.222 477.500,207.000" stroke-width="5.123" stroke="#00233E" fill="none" stroke-linecap="round"></path><path d="M 477.500,207.000 C 477.500,211.000 477.805,210.970 477.500,215.000" stroke-width="4.729" stroke="#00233E" fill="none" stroke-linecap="round"></path><path d="M 477.500,215.000 C 477.500,219.500 477.500,219.500 477.500,224.000" stroke-width="4.508" stroke="#00233E" fill="none" stroke-linecap="round"></path><path d="M 477.500,224.000 C 477.235,228.019 477.500,228.000 477.500,232.000" stroke-width="4.060" stroke="#00233E" fill="none" stroke-linecap="round"></path><path d="M 477.500,232.000 C 477.919,235.514 477.735,235.519 478.500,239.000" stroke-width="3.998" stroke="#00233E" fill="none" stroke-linecap="round"></path><path d="M 478.500,239.000 C 478.243,241.905 478.919,241.514 479.500,244.000" stroke-width="4.223" stroke="#00233E" fill="none" stroke-linecap="round"></path><path d="M 479.500,244.000 C 482.308,246.260 481.243,246.905 484.500,249.000" stroke-width="4.501" stroke="#00233E" fill="none" stroke-linecap="round"></path><path d="M 484.500,249.000 C 485.421,252.180 486.308,251.260 487.500,254.000" stroke-width="4.693" stroke="#00233E" fill="none" stroke-linecap="round"></path><path d="M 487.500,254.000 C 489.917,255.765 489.421,255.680 492.500,256.000" stroke-width="5.041" stroke="#00233E" fill="none" stroke-linecap="round"></path><path d="M 492.500,256.000 C 495.666,256.012 495.417,256.265 498.500,255.000" stroke-width="5.037" stroke="#00233E" fill="none" stroke-linecap="round"></path><path d="M 498.500,255.000 C 502.449,252.890 502.666,253.512 506.500,251.000" stroke-width="4.008" stroke="#00233E" fill="none" stroke-linecap="round"></path><path d="M 506.500,251.000 C 510.128,249.759 509.949,249.390 513.500,248.000" stroke-width="4.013" stroke="#00233E" fill="none" stroke-linecap="round"></path><path d="M 513.500,248.000 C 521.491,243.485 521.628,243.759 529.500,239.000" stroke-width="2.924" stroke="#00233E" fill="none" stroke-linecap="round"></path><path d="M 529.500,239.000 C 534.088,236.647 533.991,236.485 538.500,234.000" stroke-width="3.307" stroke="#00233E" fill="none" stroke-linecap="round"></path><path d="M 538.500,234.000 C 545.052,231.448 544.088,230.647 549.500,227.000" stroke-width="3.219" stroke="#00233E" fill="none" stroke-linecap="round"></path><path d="M 549.500,227.000 C 551.396,222.944 552.552,223.948 553.500,219.000" stroke-width="4.169" stroke="#00233E" fill="none" stroke-linecap="round"></path><path d="M 553.500,219.000 C 557.790,214.902 555.396,215.444 557.500,212.000" stroke-width="4.459" stroke="#00233E" fill="none" stroke-linecap="round"></path><path d="M 557.500,212.000 C 554.520,208.192 557.290,209.902 552.500,209.000" stroke-width="5.087" stroke="#00233E" fill="none" stroke-linecap="round"></path><path d="M 552.500,209.000 C 549.653,212.310 549.520,210.192 547.500,216.000" stroke-width="5.081" stroke="#00233E" fill="none" stroke-linecap="round"></path><path d="M 547.500,216.000 C 546.204,218.417 546.153,218.310 545.500,221.000" stroke-width="4.437" stroke="#00233E" fill="none" stroke-linecap="round"></path><path d="M 545.500,221.000 C 544.678,223.973 544.704,223.917 544.500,227.000" stroke-width="4.272" stroke="#00233E" fill="none" stroke-linecap="round"></path><path d="M 544.500,227.000 C 544.500,232.500 544.178,232.473 544.500,238.000" stroke-width="4.234" stroke="#00233E" fill="none" stroke-linecap="round"></path><path d="M 544.500,238.000 C 544.500,244.000 544.500,244.000 544.500,250.000" stroke-width="4.133" stroke="#00233E" fill="none" stroke-linecap="round"></path><path d="M 544.500,250.000 C 545.048,255.067 544.500,255.000 544.500,260.000" stroke-width="3.700" stroke="#00233E" fill="none" stroke-linecap="round"></path><path d="M 544.500,260.000 C 543.455,263.989 544.048,264.067 542.500,268.000" stroke-width="3.761" stroke="#00233E" fill="none" stroke-linecap="round"></path><path d="M 542.500,268.000 C 541.117,274.530 540.955,274.489 539.500,281.000" stroke-width="3.313" stroke="#00233E" fill="none" stroke-linecap="round"></path><path d="M 539.500,281.000 C 538.527,284.508 538.617,284.530 537.500,288.000" stroke-width="3.727" stroke="#00233E" fill="none" stroke-linecap="round"></path><path d="M 537.500,288.000 C 536.057,293.018 536.027,293.008 534.500,298.000" stroke-width="3.495" stroke="#00233E" fill="none" stroke-linecap="round"></path><path d="M 534.500,298.000 C 533.610,301.040 533.557,301.018 532.500,304.000" stroke-width="3.897" stroke="#00233E" fill="none" stroke-linecap="round"></path><path d="M 532.500,304.000 C 530.390,308.960 530.610,309.040 528.500,314.000" stroke-width="4.110" stroke="#00233E" fill="none" stroke-linecap="round"></path><path d="M 528.500,314.000 C 528.066,317.315 527.390,316.960 526.500,320.000" stroke-width="4.147" stroke="#00233E" fill="none" stroke-linecap="round"></path><path d="M 526.500,320.000 C 523.840,322.880 524.566,323.315 521.500,326.000" stroke-width="4.437" stroke="#00233E" fill="none" stroke-linecap="round"></path><path d="M 521.500,326.000 C 519.742,329.198 519.340,328.880 517.500,332.000" stroke-width="4.578" stroke="#00233E" fill="none" stroke-linecap="round"></path><path d="M 517.500,332.000 C 515.768,334.351 515.742,334.198 513.500,336.000" stroke-width="4.322" stroke="#00233E" fill="none" stroke-linecap="round"></path><path d="M 513.500,336.000 C 509.982,337.969 510.268,338.351 506.500,340.000" stroke-width="4.477" stroke="#00233E" fill="none" stroke-linecap="round"></path><path d="M 506.500,340.000 C 504.138,341.801 503.982,341.469 501.500,343.000" stroke-width="4.670" stroke="#00233E" fill="none" stroke-linecap="round"></path><path d="M 501.500,343.000 C 498.569,344.292 498.638,344.301 495.500,345.000" stroke-width="4.735" stroke="#00233E" fill="none" stroke-linecap="round"></path><path d="M 495.500,345.000 C 492.019,345.765 492.069,345.792 488.500,346.000" stroke-width="4.680" stroke="#00233E" fill="none" stroke-linecap="round"></path><path d="M 488.500,346.000 C 484.500,346.000 484.519,346.265 480.500,346.000" stroke-width="4.815" stroke="#00233E" fill="none" stroke-linecap="round"></path><path d="M 480.500,346.000 C 477.161,346.967 477.500,346.000 474.500,346.000" stroke-width="4.284" stroke="#00233E" fill="none" stroke-linecap="round"></path><path d="M 474.500,346.000 C 472.216,343.630 471.661,344.967 469.500,342.000" stroke-width="4.589" stroke="#00233E" fill="none" stroke-linecap="round"></path><path d="M 469.500,342.000 C 466.614,341.585 467.216,340.630 464.500,340.000" stroke-width="4.404" stroke="#00233E" fill="none" stroke-linecap="round"></path><path d="M 464.500,340.000 C 460.572,336.840 460.614,337.085 457.500,333.000" stroke-width="4.371" stroke="#00233E" fill="none" stroke-linecap="round"></path><path d="M 457.500,333.000 C 455.050,328.967 454.572,329.340 452.500,325.000" stroke-width="4.393" stroke="#00233E" fill="none" stroke-linecap="round"></path><path d="M 452.500,325.000 C 449.592,322.275 450.550,321.967 448.500,319.000" stroke-width="4.755" stroke="#00233E" fill="none" stroke-linecap="round"></path><path d="M 448.500,319.000 C 448.013,315.921 447.592,316.275 448.500,313.000" stroke-width="5.029" stroke="#00233E" fill="none" stroke-linecap="round"></path><path d="M 448.500,313.000 C 449.098,309.804 449.013,309.921 450.500,307.000" stroke-width="5.101" stroke="#00233E" fill="none" stroke-linecap="round"></path><path d="M 450.500,307.000 C 452.116,303.648 452.098,303.804 454.500,301.000" stroke-width="4.770" stroke="#00233E" fill="none" stroke-linecap="round"></path><path d="M 454.500,301.000 C 456.883,298.832 456.616,298.648 459.500,297.000" stroke-width="4.728" stroke="#00233E" fill="none" stroke-linecap="round"></path><path d="M 459.500,297.000 C 462.000,295.500 461.883,295.332 464.500,294.000" stroke-width="4.793" stroke="#00233E" fill="none" stroke-linecap="round"></path><path d="M 464.500,294.000 C 466.863,292.217 467.000,292.500 469.500,291.000" stroke-width="4.399" stroke="#00233E" fill="none" stroke-linecap="round"></path><path d="M 469.500,291.000 C 473.641,289.801 473.363,289.217 477.500,288.000" stroke-width="3.919" stroke="#00233E" fill="none" stroke-linecap="round"></path><path d="M 477.500,288.000 C 480.899,285.801 481.141,286.301 484.500,284.000" stroke-width="3.792" stroke="#00233E" fill="none" stroke-linecap="round"></path><path d="M 484.500,284.000 C 488.948,281.874 488.899,281.801 493.500,280.000" stroke-width="3.569" stroke="#00233E" fill="none" stroke-linecap="round"></path><path d="M 493.500,280.000 C 497.500,278.500 497.448,278.374 501.500,277.000" stroke-width="3.690" stroke="#00233E" fill="none" stroke-linecap="round"></path><path d="M 501.500,277.000 C 505.508,275.521 505.500,275.500 509.500,274.000" stroke-width="3.776" stroke="#00233E" fill="none" stroke-linecap="round"></path><path d="M 509.500,274.000 C 515.979,271.445 516.008,271.521 522.500,269.000" stroke-width="3.203" stroke="#00233E" fill="none" stroke-linecap="round"></path><path d="M 522.500,269.000 C 528.245,267.537 527.979,266.945 533.500,265.000" stroke-width="3.292" stroke="#00233E" fill="none" stroke-linecap="round"></path><path d="M 533.500,265.000 C 542.768,260.420 542.745,260.537 551.500,255.000" stroke-width="2.730" stroke="#00233E" fill="none" stroke-linecap="round"></path><path d="M 551.500,255.000 C 557.124,251.162 557.268,251.420 562.500,247.000" stroke-width="2.995" stroke="#00233E" fill="none" stroke-linecap="round"></path><path d="M 562.500,247.000 C 572.431,238.911 572.624,239.162 582.500,231.000" stroke-width="2.427" stroke="#00233E" fill="none" stroke-linecap="round"></path><path d="M 582.500,231.000 C 586.468,227.957 586.431,227.911 590.500,225.000" stroke-width="3.113" stroke="#00233E" fill="none" stroke-linecap="round"></path></svg>